<?xml version="1.0"?>
<svg xmlns="http://www.w3.org/2000/svg" height="512px" viewBox="0 -24 512.144 512" width="512px" class=""><g><path d="m32.238281 32.070312c-4.421875 0-8.039062-3.574218-8.039062-8 0-4.421874 3.535156-8 7.953125-8h.085937c4.417969 0 8 3.578126 8 8 0 4.425782-3.582031 8-8 8zm0 0" data-original="#000000" class="active-path" data-old_color="#000000" fill="#005297"/><path d="m56.238281 32.070312c-4.421875 0-8.039062-3.574218-8.039062-8 0-4.421874 3.535156-8 7.953125-8h.085937c4.417969 0 8 3.578126 8 8 0 4.425782-3.582031 8-8 8zm0 0" data-original="#000000" class="active-path" data-old_color="#000000" fill="#005297"/><path d="m80.238281 32.070312c-4.421875 0-8.039062-3.574218-8.039062-8 0-4.421874 3.535156-8 7.953125-8h.085937c4.417969 0 8 3.578126 8 8 0 4.425782-3.582031 8-8 8zm0 0" data-original="#000000" class="active-path" data-old_color="#000000" fill="#005297"/><path d="m504.144531 464.039062h-496c-4.425781 0-8-3.574218-8-8v-415.96875c0-4.421874 3.574219-8 8-8h496c4.421875 0 8 3.578126 8 8v415.96875c0 4.425782-3.578125 8-8 8zm-488-16h480v-399.96875h-480zm0 0" data-original="#000000" class="active-path" data-old_color="#000000" fill="#005297"/><path d="m8 32.070312c-4.425781 0-8-3.574218-8-8 0-13.230468 10.769531-23.9999995 24-23.9999995 4.425781 0 8 3.5781255 8 7.9999995 0 4.425782-3.574219 8-8 8-4.414062 0-8 3.585938-8 8 0 4.425782-3.574219 8-8 8zm0 0" data-original="#000000" class="active-path" data-old_color="#000000" fill="#005297"/><path d="m8 48.070312c-4.425781 0-8-3.574218-8-8v-16c0-4.421874 3.574219-8 8-8s8 3.578126 8 8v16c0 4.425782-3.574219 8-8 8zm0 0" data-original="#000000" class="active-path" data-old_color="#000000" fill="#005297"/><path d="m504 32.070312c-4.425781 0-8-3.574218-8-8 0-4.414062-3.585938-8-8-8-4.425781 0-8-3.574218-8-8 0-4.421874 3.574219-7.9999995 8-7.9999995 13.230469 0 24 10.7695315 24 23.9999995 0 4.425782-3.574219 8-8 8zm0 0" data-original="#000000" class="active-path" data-old_color="#000000" fill="#005297"/><path d="m504 48.070312c-4.425781 0-8-3.574218-8-8v-16c0-4.421874 3.574219-8 8-8s8 3.578126 8 8v16c0 4.425782-3.574219 8-8 8zm0 0" data-original="#000000" class="active-path" data-old_color="#000000" fill="#005297"/><path d="m488 16.070312h-464c-4.425781 0-8-3.574218-8-8 0-4.421874 3.574219-7.9999995 8-7.9999995h464c4.425781 0 8 3.5781255 8 7.9999995 0 4.425782-3.574219 8-8 8zm0 0" data-original="#000000" class="active-path" data-old_color="#000000" fill="#005297"/><path d="m472.191406 304.167969h-431.992187c-4.421875 0-8-3.574219-8-8v-223.96875c0-4.421875 3.578125-8 8-8h431.992187c4.425782 0 8 3.578125 8 8v223.96875c0 4.417969-3.582031 8-8 8zm-423.992187-16h415.992187v-207.96875h-415.992187zm0 0" data-original="#000000" class="active-path" data-old_color="#000000" fill="#005297"/><path d="m440.214844 192.167969h-160.109375c-4.425781 0-8-3.574219-8-8s3.574219-8 8-8h160.109375c4.425781 0 8 3.574219 8 8s-3.582032 8-8 8zm0 0" data-original="#000000" class="active-path" data-old_color="#000000" fill="#005297"/><path d="m440.214844 168.136719h-160.109375c-4.425781 0-8-3.578125-8-8 0-4.425781 3.574219-8 8-8h160.109375c4.425781 0 8 3.574219 8 8 0 4.421875-3.582032 8-8 8zm0 0" data-original="#000000" class="active-path" data-old_color="#000000" fill="#005297"/><path d="m440.214844 144.121094h-160.109375c-4.425781 0-8-3.578125-8-8 0-4.425782 3.574219-8 8-8h160.109375c4.425781 0 8 3.574218 8 8 0 4.421875-3.582032 8-8 8zm0 0" data-original="#000000" class="active-path" data-old_color="#000000" fill="#005297"/><path d="m440.214844 216.152344h-160.109375c-4.425781 0-8-3.578125-8-8 0-4.425782 3.574219-8 8-8h160.109375c4.425781 0 8 3.574218 8 8 0 4.421875-3.582032 8-8 8zm0 0" data-original="#000000" class="active-path" data-old_color="#000000" fill="#005297"/><path d="m368.144531 240.167969h-88.039062c-4.425781 0-8-3.574219-8-8s3.574219-8 8-8h88.039062c4.421875 0 8 3.574219 8 8s-3.578125 8-8 8zm0 0" data-original="#000000" class="active-path" data-old_color="#000000" fill="#005297"/><path d="m208.214844 144.023438h-111.957032c-4.425781 0-8-3.574219-8-8 0-4.421876 3.574219-8 8-8h111.949219c4.425781 0 8 3.578124 8 8 0 4.425781-3.574219 8-7.992187 8zm0 0" data-original="#000000" class="active-path" data-old_color="#000000" fill="#005297"/><path d="m152.238281 264.023438c-4.421875 0-8-3.574219-8-8v-144c0-4.421876 3.578125-8 8-8 4.425781 0 8 3.578124 8 8v144c0 4.425781-3.574219 8-8 8zm0 0" data-original="#000000" class="active-path" data-old_color="#000000" fill="#005297"/><path d="m192.222656 264.023438h-79.949218c-4.425782 0-8-3.574219-8-8 0-4.421876 3.574218-8 8-8h79.949218c4.425782 0 8 3.578124 8 8 0 4.425781-3.582031 8-8 8zm0 0" data-original="#000000" class="active-path" data-old_color="#000000" fill="#005297"/><path d="m96.257812 224.023438c-17.648437 0-32-14.351563-32-32 0-4.421876 3.574219-8 8-8 4.421876 0 8 3.578124 8 8 0 8.824218 7.175782 16 16 16 8.820313 0 16-7.175782 16-16 0-4.421876 3.574219-8 8-8 4.421876 0 8 3.578124 8 8 0 17.648437-14.355468 32-32 32zm0 0" data-original="#000000" class="active-path" data-old_color="#000000" fill="#005297"/><path d="m120.257812 200.023438h-48c-4.425781 0-8-3.574219-8-8 0-4.421876 3.574219-8 8-8h48c4.421876 0 8 3.578124 8 8 0 4.425781-3.578124 8-8 8zm0 0" data-original="#000000" class="active-path" data-old_color="#000000" fill="#005297"/><path d="m72.257812 200.023438c-1.058593 0-2.128906-.199219-3.152343-.648438-4.066407-1.742188-5.945313-6.445312-4.203125-10.503906l24-56c1.738281-4.070313 6.472656-5.960938 10.503906-4.199219 4.066406 1.742187 5.945312 6.449219 4.203125 10.503906l-24 56c-1.296875 3.039063-4.25 4.847657-7.351563 4.847657zm0 0" data-original="#000000" class="active-path" data-old_color="#000000" fill="#005297"/><path d="m120.257812 200.023438c-3.105468 0-6.058593-1.816407-7.355468-4.847657l-24-56c-1.742188-4.054687.144531-8.761719 4.203125-10.503906 4.03125-1.769531 8.757812.128906 10.503906 4.199219l24 56c1.742187 4.058594-.144531 8.761718-4.203125 10.503906-1.023438.449219-2.09375.648438-3.148438.648438zm0 0" data-original="#000000" class="active-path" data-old_color="#000000" fill="#005297"/><path d="m208.214844 224.023438c-17.648438 0-32-14.351563-32-32 0-4.421876 3.578125-8 8-8 4.425781 0 8 3.578124 8 8 0 8.824218 7.175781 16 16 16 8.824218 0 16-7.175782 16-16 0-4.421876 3.578125-8 8-8 4.425781 0 8 3.578124 8 8 0 17.648437-14.351563 32-32 32zm0 0" data-original="#000000" class="active-path" data-old_color="#000000" fill="#005297"/><path d="m232.214844 200.023438h-48c-4.421875 0-8-3.574219-8-8 0-4.421876 3.578125-8 8-8h48c4.425781 0 8 3.578124 8 8 0 4.425781-3.582032 8-8 8zm0 0" data-original="#000000" class="active-path" data-old_color="#000000" fill="#005297"/><path d="m184.214844 200.023438c-1.054688 0-2.125-.199219-3.152344-.648438-4.0625-1.742188-5.941406-6.445312-4.199219-10.503906l24-56c1.746094-4.070313 6.480469-5.960938 10.503907-4.199219 4.066406 1.742187 5.945312 6.449219 4.199218 10.503906l-24 56c-1.300781 3.039063-4.253906 4.847657-7.351562 4.847657zm0 0" data-original="#000000" class="active-path" data-old_color="#000000" fill="#005297"/><path d="m232.214844 200.023438c-3.101563 0-6.054688-1.816407-7.351563-4.847657l-24-56c-1.742187-4.054687.144531-8.761719 4.199219-10.503906 4.015625-1.769531 8.761719.128906 10.503906 4.199219l24 56c1.746094 4.058594-.140625 8.761718-4.199218 10.503906-1.03125.449219-2.101563.648438-3.152344.648438zm0 0" data-original="#000000" class="active-path" data-old_color="#000000" fill="#005297"/><path d="m108.238281 360.070312c-11.03125 0-20-8.964843-20-20 0-11.03125 8.96875-20 20-20 11.035157 0 20 8.96875 20 20 0 11.035157-8.964843 20-20 20zm0-24c-2.199219 0-4 1.800782-4 4 0 2.203126 1.800781 4 4 4 2.203125 0 4-1.796874 4-4 0-2.199218-1.789062-4-4-4zm0 0" data-original="#000000" class="active-path" data-old_color="#000000" fill="#005297"/><path d="m128.238281 380.070312c-4.421875 0-8-3.574218-8-8 0-6.613281-5.382812-12-12-12-6.613281 0-12 5.386719-12 12 0 4.425782-3.574219 8-8 8-4.421875 0-8-3.574218-8-8 0-15.4375 12.5625-28 28-28 15.441407 0 28 12.5625 28 28 0 4.425782-3.574219 8-8 8zm0 0" data-original="#000000" class="active-path" data-old_color="#000000" fill="#005297"/><path d="m88.238281 384.070312c-4.421875 0-8-3.574218-8-8v-4c0-4.421874 3.578125-8 8-8 4.425781 0 8 3.578126 8 8v4c0 4.425782-3.574219 8-8 8zm0 0" data-original="#000000" class="active-path" data-old_color="#000000" fill="#005297"/><path d="m128.238281 384.070312h-40c-4.421875 0-8-3.574218-8-8 0-4.421874 3.578125-8 8-8h40c4.425781 0 8 3.578126 8 8 0 4.425782-3.574219 8-8 8zm0 0" data-original="#000000" class="active-path" data-old_color="#000000" fill="#005297"/><path d="m128.238281 384.070312c-4.421875 0-8-3.574218-8-8v-4c0-4.421874 3.578125-8 8-8 4.425781 0 8 3.578126 8 8v4c0 4.425782-3.574219 8-8 8zm0 0" data-original="#000000" class="active-path" data-old_color="#000000" fill="#005297"/><path d="m160.207031 408.089844h-103.992187c-4.421875 0-8-3.578125-8-8 0-4.425782 3.578125-8 8-8h103.992187c4.425781 0 8 3.574218 8 8 0 4.421875-3.582031 8-8 8zm0 0" data-original="#000000" class="active-path" data-old_color="#000000" fill="#005297"/><path d="m136.207031 432.105469h-55.992187c-4.421875 0-8-3.578125-8-8 0-4.425781 3.578125-8 8-8h55.992187c4.425781 0 8 3.574219 8 8 0 4.421875-3.582031 8-8 8zm0 0" data-original="#000000" class="active-path" data-old_color="#000000" fill="#005297"/><path d="m256.160156 360.070312c-11.03125 0-20-8.964843-20-20 0-11.03125 8.96875-20 20-20s20 8.96875 20 20c0 11.035157-8.96875 20-20 20zm0-24c-2.199218 0-4 1.800782-4 4 0 2.203126 1.800782 4 4 4 2.199219 0 4-1.796874 4-4 0-2.199218-1.800781-4-4-4zm0 0" data-original="#000000" class="active-path" data-old_color="#000000" fill="#005297"/><path d="m276.160156 380.070312c-4.425781 0-8-3.574218-8-8 0-6.613281-5.382812-12-12-12-6.617187 0-12 5.386719-12 12 0 4.425782-3.574218 8-8 8-4.425781 0-8-3.574218-8-8 0-15.4375 12.558594-28 28-28s28 12.5625 28 28c0 4.425782-3.585937 8-8 8zm0 0" data-original="#000000" class="active-path" data-old_color="#000000" fill="#005297"/><path d="m236.160156 384.070312c-4.425781 0-8-3.574218-8-8v-4c0-4.421874 3.574219-8 8-8 4.425782 0 8 3.578126 8 8v4c0 4.425782-3.585937 8-8 8zm0 0" data-original="#000000" class="active-path" data-old_color="#000000" fill="#005297"/><path d="m276.160156 384.070312h-40c-4.425781 0-8-3.574218-8-8 0-4.421874 3.574219-8 8-8h40c4.425782 0 8 3.578126 8 8 0 4.425782-3.585937 8-8 8zm0 0" data-original="#000000" class="active-path" data-old_color="#000000" fill="#005297"/><path d="m276.160156 384.070312c-4.425781 0-8-3.574218-8-8v-4c0-4.421874 3.574219-8 8-8 4.425782 0 8 3.578126 8 8v4c0 4.425782-3.585937 8-8 8zm0 0" data-original="#000000" class="active-path" data-old_color="#000000" fill="#005297"/><path d="m308.121094 408.089844h-103.992188c-4.425781 0-8-3.578125-8-8 0-4.425782 3.574219-8 8-8h103.992188c4.421875 0 8 3.574218 8 8 0 4.421875-3.578125 8-8 8zm0 0" data-original="#000000" class="active-path" data-old_color="#000000" fill="#005297"/><path d="m284.121094 432.105469h-55.992188c-4.425781 0-8-3.578125-8-8 0-4.425781 3.574219-8 8-8h55.992188c4.421875 0 8 3.574219 8 8 0 4.421875-3.578125 8-8 8zm0 0" data-original="#000000" class="active-path" data-old_color="#000000" fill="#005297"/><path d="m404.230469 360.070312c-11.03125 0-20-8.964843-20-20 0-11.03125 8.96875-20 20-20 11.035156 0 20 8.96875 20 20 0 11.035157-8.972657 20-20 20zm0-24c-2.199219 0-4 1.800782-4 4 0 2.203126 1.800781 4 4 4 2.203125 0 4-1.796874 4-4 0-2.199218-1.796875-4-4-4zm0 0" data-original="#000000" class="active-path" data-old_color="#000000" fill="#005297"/><path d="m424.230469 380.070312c-4.421875 0-8-3.574218-8-8 0-6.613281-5.382813-12-12-12-6.613281 0-12 5.386719-12 12 0 4.425782-3.574219 8-8 8-4.421875 0-8-3.574218-8-8 0-15.4375 12.5625-28 28-28 15.441406 0 28 12.5625 28 28 0 4.425782-3.582031 8-8 8zm0 0" data-original="#000000" class="active-path" data-old_color="#000000" fill="#005297"/><path d="m384.230469 384.070312c-4.421875 0-8-3.574218-8-8v-4c0-4.421874 3.578125-8 8-8 4.425781 0 8 3.578126 8 8v4c0 4.425782-3.582031 8-8 8zm0 0" data-original="#000000" class="active-path" data-old_color="#000000" fill="#005297"/><path d="m424.230469 384.070312h-40c-4.421875 0-8-3.574218-8-8 0-4.421874 3.578125-8 8-8h40c4.425781 0 8 3.578126 8 8 0 4.425782-3.582031 8-8 8zm0 0" data-original="#000000" class="active-path" data-old_color="#000000" fill="#005297"/><path d="m424.230469 384.070312c-4.421875 0-8-3.574218-8-8v-4c0-4.421874 3.578125-8 8-8 4.425781 0 8 3.578126 8 8v4c0 4.425782-3.582031 8-8 8zm0 0" data-original="#000000" class="active-path" data-old_color="#000000" fill="#005297"/><path d="m456.191406 408.089844h-103.992187c-4.421875 0-8-3.578125-8-8 0-4.425782 3.578125-8 8-8h103.992187c4.425782 0 8 3.574218 8 8 0 4.421875-3.582031 8-8 8zm0 0" data-original="#000000" class="active-path" data-old_color="#000000" fill="#005297"/><path d="m432.191406 432.105469h-55.992187c-4.421875 0-8-3.578125-8-8 0-4.425781 3.578125-8 8-8h55.992187c4.425782 0 8 3.574219 8 8 0 4.421875-3.582031 8-8 8zm0 0" data-original="#000000" class="active-path" data-old_color="#000000" fill="#005297"/></g> </svg>
