<?xml version="1.0"?>
<svg xmlns="http://www.w3.org/2000/svg" xmlns:xlink="http://www.w3.org/1999/xlink" version="1.1" id="Capa_1" x="0px" y="0px" viewBox="0 0 464 464" style="enable-background:new 0 0 464 464;" xml:space="preserve" width="512px" height="512px"><g><g>
	<g>
		<path d="M453.656,98.344l-96-96C356.156,0.844,354.122,0,352,0H16c-4.418,0-8,3.582-8,8v232c0,4.418,3.582,8,8,8h208v40h-56v16    h152v-16h-80v-48c0-4.418-3.582-8-8-8H24V16h320v88c0,4.418,3.582,8,8,8h88v120H256v16h192c4.418,0,8-3.582,8-8V104    C456,101.878,455.156,99.844,453.656,98.344z M360,96V27.312L428.688,96H360z" data-original="#000000" class="active-path" data-old_color="#000000" fill="#003779"/>
	</g>
</g><g>
	<g>
		<path d="M112,48H64c-4.418,0-8,3.582-8,8v48c0,4.418,3.582,8,8,8h48c4.418,0,8-3.582,8-8V56C120,51.582,116.418,48,112,48z     M104,96H72V64h32V96z" data-original="#000000" class="active-path" data-old_color="#000000" fill="#003779"/>
	</g>
</g><g>
	<g>
		<rect x="136" y="56" width="112" height="16" data-original="#000000" class="active-path" data-old_color="#000000" fill="#003779"/>
	</g>
</g><g>
	<g>
		<rect x="136" y="88" width="16" height="16" data-original="#000000" class="active-path" data-old_color="#000000" fill="#003779"/>
	</g>
</g><g>
	<g>
		<rect x="168" y="88" width="16" height="16" data-original="#000000" class="active-path" data-old_color="#000000" fill="#003779"/>
	</g>
</g><g>
	<g>
		<path d="M285.656,362.344l-24-24c-1.5-1.5-3.534-2.344-5.656-2.344h-72c-4.418,0-8,3.582-8,8v112c0,4.418,3.582,8,8,8h96    c4.418,0,8-3.582,8-8v-88C288,365.878,287.156,363.844,285.656,362.344z M272,448h-80v-96h60.688L272,371.312V448z" data-original="#000000" class="active-path" data-old_color="#000000" fill="#003779"/>
	</g>
</g><g>
	<g>
		<path d="M437.656,362.344l-24-24c-1.5-1.5-3.534-2.344-5.656-2.344h-72c-4.418,0-8,3.582-8,8v112c0,4.418,3.582,8,8,8h96    c4.418,0,8-3.582,8-8v-88C440,365.878,439.156,363.844,437.656,362.344z M424,448h-80v-96h60.688L424,371.312V448z" data-original="#000000" class="active-path" data-old_color="#000000" fill="#003779"/>
	</g>
</g><g>
	<g>
		<path d="M133.656,362.344l-24-24c-1.5-1.5-3.534-2.344-5.656-2.344H32c-4.418,0-8,3.582-8,8v112c0,4.418,3.582,8,8,8h96    c4.418,0,8-3.582,8-8v-88C136,365.878,135.156,363.844,133.656,362.344z M120,448H40v-96h60.688L120,371.312V448z" data-original="#000000" class="active-path" data-old_color="#000000" fill="#003779"/>
	</g>
</g><g>
	<g>
		<path d="M392,288h-24v16h16v16h16v-24C400,291.582,396.418,288,392,288z" data-original="#000000" class="active-path" data-old_color="#000000" fill="#003779"/>
	</g>
</g><g>
	<g>
		<rect x="336" y="288" width="16" height="16" data-original="#000000" class="active-path" data-old_color="#000000" fill="#003779"/>
	</g>
</g><g>
	<g>
		<rect x="136" y="288" width="16" height="16" data-original="#000000" class="active-path" data-old_color="#000000" fill="#003779"/>
	</g>
</g><g>
	<g>
		<path d="M72,288c-4.418,0-8,3.582-8,8v24h16v-16h40v-16H72z" data-original="#000000" class="active-path" data-old_color="#000000" fill="#003779"/>
	</g>
</g><g>
	<g>
		<rect x="128" y="144" width="256" height="16" data-original="#000000" class="active-path" data-old_color="#000000" fill="#003779"/>
	</g>
</g><g>
	<g>
		<rect x="80" y="192" width="304" height="16" data-original="#000000" class="active-path" data-old_color="#000000" fill="#003779"/>
	</g>
</g><g>
	<g>
		<rect x="208" y="384" width="48" height="16" data-original="#000000" class="active-path" data-old_color="#000000" fill="#003779"/>
	</g>
</g><g>
	<g>
		<rect x="208" y="416" width="48" height="16" data-original="#000000" class="active-path" data-old_color="#000000" fill="#003779"/>
	</g>
</g><g>
	<g>
		<rect x="56" y="384" width="48" height="16" data-original="#000000" class="active-path" data-old_color="#000000" fill="#003779"/>
	</g>
</g><g>
	<g>
		<rect x="56" y="416" width="48" height="16" data-original="#000000" class="active-path" data-old_color="#000000" fill="#003779"/>
	</g>
</g><g>
	<g>
		<rect x="360" y="384" width="48" height="16" data-original="#000000" class="active-path" data-old_color="#000000" fill="#003779"/>
	</g>
</g><g>
	<g>
		<rect x="360" y="416" width="48" height="16" data-original="#000000" class="active-path" data-old_color="#000000" fill="#003779"/>
	</g>
</g></g> </svg>
