<?xml version="1.0"?>
<svg xmlns="http://www.w3.org/2000/svg" viewBox="1 -27 511.996 511" width="512px" height="512px"><g><path d="m480.832031 79.871094h-147.257812c-17.1875 0-31.167969 13.984375-31.167969 31.167968 0 8.914063-7.25 16.167969-16.164062 16.167969h-189.335938c-17.183594 0-31.164062 13.980469-31.164062 31.167969v268.21875c0 17.1875 13.980468 31.167969 31.164062 31.167969h383.925781c17.1875 0 31.167969-13.980469 31.167969-31.167969v-315.554688c0-17.183593-13.980469-31.167968-31.167969-31.167968zm16.167969 346.722656c0 8.914062-7.253906 16.167969-16.167969 16.167969h-383.925781c-8.914062 0-16.164062-7.253907-16.164062-16.167969v-268.21875c0-8.914062 7.25-16.167969 16.164062-16.167969h189.335938c17.183593 0 31.164062-13.980469 31.164062-31.167969 0-8.914062 7.253906-16.167968 16.167969-16.167968h147.257812c8.914063 0 16.167969 7.253906 16.167969 16.167968zm0 0" data-original="#000000" class="active-path" data-old_color="#000000" fill="#003779"/><path d="m42.746094 375.429688h-27.746094v-359.929688h450.445312v41.851562c0 4.140626 3.355469 7.5 7.5 7.5 4.140626 0 7.5-3.359374 7.5-7.5v-49.351562c0-4.144531-3.359374-7.5-7.5-7.5h-465.445312c-4.144531 0-7.5 3.355469-7.5 7.5v374.929688c0 4.140624 3.355469 7.5 7.5 7.5h35.246094c4.140625 0 7.5-3.359376 7.5-7.5 0-4.140626-3.359375-7.5-7.5-7.5zm0 0" data-original="#000000" class="active-path" data-old_color="#000000" fill="#003779"/><path d="m254.6875 192.949219h-120.964844c-4.144531 0-7.5 3.355469-7.5 7.5 0 4.140625 3.355469 7.5 7.5 7.5h120.964844c4.140625 0 7.5-3.359375 7.5-7.5 0-4.144531-3.359375-7.5-7.5-7.5zm0 0" data-original="#000000" class="active-path" data-old_color="#000000" fill="#003779"/><path d="m254.6875 237.652344h-120.964844c-4.144531 0-7.5 3.355468-7.5 7.5 0 4.140625 3.355469 7.5 7.5 7.5h120.964844c4.140625 0 7.5-3.359375 7.5-7.5 0-4.144532-3.359375-7.5-7.5-7.5zm0 0" data-original="#000000" class="active-path" data-old_color="#000000" fill="#003779"/></g> </svg>
